<svg width="615" height="235" viewBox="0 0 615 235" fill="none" xmlns="http://www.w3.org/2000/svg">
<path d="M61.8066 77.475V103.745H104.172V128.165H61.8066V156.655H109.722V182H30.1716V52.13H109.722V77.475H61.8066ZM277.335 52.13V182H245.7V104.115L216.655 182H191.125L161.895 103.93V182H130.26V52.13H167.63L204.075 142.04L240.15 52.13H277.335ZM361.504 183.295C349.294 183.295 338.07 180.458 327.834 174.785C317.72 169.112 309.642 161.218 303.599 151.105C297.679 140.868 294.719 129.398 294.719 116.695C294.719 103.992 297.679 92.5833 303.599 82.47C309.642 72.3567 317.72 64.4633 327.834 58.79C338.07 53.1167 349.294 50.28 361.504 50.28C373.714 50.28 384.875 53.1167 394.989 58.79C405.225 64.4633 413.242 72.3567 419.039 82.47C424.959 92.5833 427.919 103.992 427.919 116.695C427.919 129.398 424.959 140.868 419.039 151.105C413.119 161.218 405.102 169.112 394.989 174.785C384.875 180.458 373.714 183.295 361.504 183.295ZM361.504 154.435C371.864 154.435 380.127 150.982 386.294 144.075C392.584 137.168 395.729 128.042 395.729 116.695C395.729 105.225 392.584 96.0983 386.294 89.315C380.127 82.4083 371.864 78.955 361.504 78.955C351.02 78.955 342.634 82.3467 336.344 89.13C330.177 95.9133 327.094 105.102 327.094 116.695C327.094 128.165 330.177 137.353 336.344 144.26C342.634 151.043 351.02 154.435 361.504 154.435ZM526.918 52.13V140.56C526.918 154.25 523.033 164.795 515.263 172.195C507.617 179.595 497.257 183.295 484.183 183.295C470.493 183.295 459.517 179.41 451.253 171.64C442.99 163.87 438.858 152.832 438.858 138.525H470.308C470.308 143.952 471.418 148.083 473.638 150.92C475.858 153.633 479.065 154.99 483.258 154.99C487.082 154.99 490.042 153.757 492.138 151.29C494.235 148.823 495.283 145.247 495.283 140.56V52.13H526.918ZM584.106 52.13V182H552.471V52.13H584.106Z" fill="#DEDEDE"/>
</svg>